
<svg
  version="1.0"
  xmlns="http://www.w3.org/2000/svg"
  xmlns:xlink="http://www.w3.org/1999/xlink"
  width="2400"
  height="1800"
>
  
  <rect
    x="0"
    y="0"
    width="100%"
    height="100%"
    fill="#faf7f5"
    fill-opacity="1"
  ></rect>
  <svg
    version="1.0"
    xmlns="http://www.w3.org/2000/svg"
    xmlns:xlink="http://www.w3.org/1999/xlink"
    x="0"
    y="0"
    width="2400"
    height="1800"
    viewBox="0 0 340.000000 250.000000"
    preserveAspectRatio="xMidYMid meet"
    color-interpolation-filters="sRGB"
  >
    <defs><linearGradient id="92" x1="0%" y1="0%" x2="100%" y2="0%"><stop offset="0%" stop-color="#fa71cd"/> <stop offset="100%" stop-color="#9b59b6"/></linearGradient><linearGradient id="93" x1="0%" y1="0%" x2="100%" y2="0%"><stop offset="0%" stop-color="#f9d423"/> <stop offset="100%" stop-color="#f83600"/></linearGradient><linearGradient id="94" x1="0%" y1="0%" x2="100%" y2="0%"><stop offset="0%" stop-color="#0064d2"/> <stop offset="100%" stop-color="#1cb0f6"/></linearGradient><linearGradient id="95" x1="0%" y1="0%" x2="100%" y2="0%"><stop offset="0%" stop-color="#f00978"/> <stop offset="100%" stop-color="#3f51b1"/></linearGradient><linearGradient id="96" x1="0%" y1="0%" x2="100%" y2="0%"><stop offset="0%" stop-color="#7873f5"/> <stop offset="100%" stop-color="#ec77ab"/></linearGradient><linearGradient id="97" x1="0%" y1="0%" x2="100%" y2="0%"><stop offset="0%" stop-color="#f9d423"/> <stop offset="100%" stop-color="#e14fad"/></linearGradient><linearGradient id="98" x1="0%" y1="0%" x2="100%" y2="0%"><stop offset="0%" stop-color="#009efd"/> <stop offset="100%" stop-color="#2af598"/></linearGradient><linearGradient id="99" x1="0%" y1="0%" x2="100%" y2="0%"><stop offset="0%" stop-color="#ffcc00"/> <stop offset="100%" stop-color="#00b140"/></linearGradient><linearGradient id="100" x1="0%" y1="0%" x2="100%" y2="0%"><stop offset="0%" stop-color="#d51007"/> <stop offset="100%" stop-color="#ff8177"/></linearGradient><linearGradient id="102" x1="0%" y1="0%" x2="100%" y2="0%"><stop offset="0%" stop-color="#a2b6df"/> <stop offset="100%" stop-color="#0c3483"/></linearGradient><linearGradient id="103" x1="0%" y1="0%" x2="100%" y2="0%"><stop offset="0%" stop-color="#7ac5d8"/> <stop offset="100%" stop-color="#eea2a2"/></linearGradient><linearGradient id="104" x1="0%" y1="0%" x2="100%" y2="0%"><stop offset="0%" stop-color="#00ecbc"/> <stop offset="100%" stop-color="#007adf"/></linearGradient><linearGradient id="105" x1="0%" y1="0%" x2="100%" y2="0%"><stop offset="0%" stop-color="#b88746"/> <stop offset="100%" stop-color="#fdf5a6"/></linearGradient></defs> <g fill="#000000" class="icon-text-wrapper icon-svg-group iconsvg" transform="translate(61.275001525878906,107.26769638061523)"><g class="iconsvg-imagesvg" transform="translate(0,0)"><g><rect fill="#000000" fill-opacity="0" stroke-width="2" x="0" y="0" width="34.799999999999976" height="35.464606730122476" class="image-rect"/> <svg x="0" y="0" width="34.799999999999976" height="35.464606730122476" filtersec="colorsb7539816467" class="image-svg-svg primary" style="overflow: visible;"><svg xmlns="http://www.w3.org/2000/svg" viewBox="-0.0000015938118167468929 -0.0013880709884688258 96.12000274658203 97.95584869384766"><defs><linearGradient id="500880b8-336e-49ea-8e09-d5772b98ac47" y1="48.98" x2="96.12" y2="48.98" gradientUnits="userSpaceOnUse"><stop offset="0" stop-color="#525CEB"/><stop offset="1" stop-color="#525CEB"/></linearGradient></defs><g><path d="M9.6 43.42V32.33l19.26 11.12 38.5-22.23L77 26.76 38.5 49l9.55 5.57 47.2-27.28a6.18 6.18 0 0 0-2.33-2.36L67.28 10.14 28.86 32.32l-9.63-5.56L57.66 4.58 51.18.83a6.27 6.27 0 0 0-6.24 0L3.12 25A6.26 6.26 0 0 0 0 30.38V49l48.06 27.73 38.53-22.25v11.1L48.06 87.83 0 60.08v7.5A6.26 6.26 0 0 0 3.12 73l41.82 24.12a6.25 6.25 0 0 0 6.24 0L93 73a6.26 6.26 0 0 0 3.12-5.41V37.88L48.06 65.63z" fill="url(#500880b8-336e-49ea-8e09-d5772b98ac47)"/></g></svg></svg> </g></g> <g transform="translate(41.79999923706055,8.112303733825684)"><g fill-rule="" stroke="#000000" class="tp-name iconsvg-namesvg"><g transform="scale(1)"><g><path d="M10.12-13.79L9.62-12.81Q9.53-12.65 9.42-12.57 9.31-12.49 9.14-12.49L9.14-12.49Q8.96-12.49 8.73-12.67 8.49-12.85 8.12-13.07 7.76-13.29 7.24-13.47 6.73-13.65 6-13.65L6-13.65Q5.31-13.65 4.78-13.46 4.25-13.28 3.89-12.96 3.54-12.64 3.36-12.21 3.18-11.78 3.18-11.28L3.18-11.28Q3.18-10.65 3.49-10.23 3.8-9.81 4.32-9.52 4.83-9.22 5.48-9 6.14-8.78 6.82-8.55 7.5-8.32 8.15-8.03 8.81-7.73 9.32-7.29 9.83-6.84 10.15-6.2 10.46-5.55 10.46-4.61L10.46-4.61Q10.46-3.61 10.12-2.74 9.78-1.86 9.13-1.22 8.48-0.57 7.53-0.2 6.58 0.17 5.37 0.17L5.37 0.17Q3.9 0.17 2.69-0.37 1.47-0.9 0.61-1.81L0.61-1.81 1.21-2.79Q1.29-2.9 1.41-2.98 1.54-3.06 1.68-3.06L1.68-3.06Q1.91-3.06 2.19-2.82 2.48-2.59 2.91-2.3 3.34-2.01 3.95-1.77 4.56-1.54 5.44-1.54L5.44-1.54Q6.17-1.54 6.74-1.74 7.31-1.94 7.71-2.3 8.11-2.67 8.32-3.18 8.53-3.69 8.53-4.31L8.53-4.31Q8.53-5 8.22-5.44 7.9-5.88 7.4-6.18 6.89-6.47 6.24-6.68 5.58-6.89 4.9-7.1 4.22-7.32 3.57-7.61 2.91-7.89 2.41-8.35 1.9-8.81 1.58-9.49 1.27-10.17 1.27-11.18L1.27-11.18Q1.27-11.98 1.58-12.74 1.9-13.49 2.49-14.07 3.08-14.65 3.96-15 4.83-15.35 5.97-15.35L5.97-15.35Q7.24-15.35 8.29-14.95 9.33-14.55 10.12-13.79L10.12-13.79ZM12.52-10.73L14.41-10.73 14.41-3.89Q14.41-2.67 14.97-2 15.53-1.34 16.67-1.34L16.67-1.34Q17.49-1.34 18.22-1.73 18.96-2.12 19.57-2.82L19.57-2.82 19.57-10.73 21.46-10.73 21.46 0 20.33 0Q19.93 0 19.82-0.39L19.82-0.39 19.68-1.55Q18.98-0.77 18.11-0.3 17.24 0.17 16.12 0.17L16.12 0.17Q15.24 0.17 14.56-0.12 13.89-0.41 13.44-0.94 12.98-1.47 12.75-2.23 12.52-2.98 12.52-3.89L12.52-3.89 12.52-10.73ZM26.45 0L24.56 0 24.56-10.73 25.68-10.73Q26.09-10.73 26.19-10.34L26.19-10.34 26.34-9.18Q27.04-9.95 27.9-10.43 28.77-10.9 29.9-10.9L29.9-10.9Q30.78-10.9 31.45-10.61 32.13-10.32 32.58-9.79 33.03-9.25 33.26-8.5 33.49-7.75 33.49-6.83L33.49-6.83 33.49 0 31.61 0 31.61-6.83Q31.61-8.05 31.05-8.73 30.49-9.4 29.35-9.4L29.35-9.4Q28.51-9.4 27.79-9 27.06-8.59 26.45-7.9L26.45-7.9 26.45 0ZM42.91-9.65L42.49-8.96Q42.36-8.73 42.1-8.73L42.1-8.73Q41.94-8.73 41.74-8.85 41.54-8.96 41.24-9.11 40.95-9.25 40.55-9.37 40.15-9.49 39.6-9.49L39.6-9.49Q39.12-9.49 38.74-9.37 38.36-9.25 38.09-9.04 37.82-8.83 37.67-8.55 37.53-8.26 37.53-7.94L37.53-7.94Q37.53-7.52 37.77-7.25 38.01-6.97 38.4-6.77 38.79-6.57 39.29-6.42 39.79-6.26 40.31-6.09 40.84-5.91 41.33-5.7 41.83-5.49 42.22-5.17 42.62-4.85 42.85-4.39 43.09-3.93 43.09-3.28L43.09-3.28Q43.09-2.54 42.83-1.91 42.56-1.28 42.04-0.82 41.53-0.36 40.77-0.1 40.02 0.17 39.04 0.17L39.04 0.17Q37.91 0.17 37-0.2 36.09-0.56 35.45-1.13L35.45-1.13 35.9-1.85Q35.98-1.99 36.1-2.07 36.22-2.14 36.41-2.14L36.41-2.14Q36.6-2.14 36.81-1.99 37.02-1.84 37.32-1.66 37.63-1.48 38.06-1.34 38.48-1.19 39.13-1.19L39.13-1.19Q39.68-1.19 40.09-1.33 40.51-1.47 40.78-1.72 41.06-1.96 41.19-2.28 41.32-2.6 41.32-2.96L41.32-2.96Q41.32-3.4 41.09-3.69 40.85-3.98 40.45-4.19 40.06-4.4 39.56-4.55 39.06-4.7 38.53-4.87 38.01-5.04 37.5-5.26 37-5.48 36.61-5.81 36.22-6.14 35.98-6.62 35.74-7.1 35.74-7.79L35.74-7.79Q35.74-8.4 35.99-8.97 36.25-9.54 36.74-9.97 37.22-10.39 37.93-10.65 38.64-10.9 39.55-10.9L39.55-10.9Q40.61-10.9 41.46-10.57 42.3-10.24 42.91-9.65L42.91-9.65ZM47.43 0L45.54 0 45.54-15.61 47.43-15.61 47.43-9.29Q48.12-10.02 48.95-10.46 49.79-10.9 50.88-10.9L50.88-10.9Q51.76-10.9 52.43-10.61 53.11-10.32 53.56-9.79 54.01-9.25 54.24-8.5 54.47-7.75 54.47-6.83L54.47-6.83 54.47 0 52.59 0 52.59-6.83Q52.59-8.05 52.03-8.73 51.47-9.4 50.33-9.4L50.33-9.4Q49.49-9.4 48.77-9 48.04-8.59 47.43-7.9L47.43-7.9 47.43 0ZM57.54-10.73L59.42-10.73 59.42 0 57.54 0 57.54-10.73ZM59.85-14.1L59.85-14.1Q59.85-13.83 59.73-13.59 59.62-13.35 59.44-13.17 59.25-12.98 59.01-12.87 58.76-12.77 58.49-12.77L58.49-12.77Q58.21-12.77 57.98-12.87 57.74-12.98 57.55-13.17 57.37-13.35 57.26-13.59 57.15-13.83 57.15-14.1L57.15-14.1Q57.15-14.38 57.26-14.63 57.37-14.88 57.55-15.06 57.74-15.25 57.98-15.35 58.21-15.46 58.49-15.46L58.49-15.46Q58.76-15.46 59.01-15.35 59.25-15.25 59.44-15.06 59.62-14.88 59.73-14.63 59.85-14.38 59.85-14.1ZM64.63 0L62.75 0 62.75-10.73 63.87-10.73Q64.27-10.73 64.38-10.34L64.38-10.34 64.53-9.18Q65.23-9.95 66.09-10.43 66.96-10.9 68.09-10.9L68.09-10.9Q68.97-10.9 69.64-10.61 70.31-10.32 70.76-9.79 71.21-9.25 71.45-8.5 71.68-7.75 71.68-6.83L71.68-6.83 71.68 0 69.79 0 69.79-6.83Q69.79-8.05 69.24-8.73 68.68-9.4 67.54-9.4L67.54-9.4Q66.7-9.4 65.98-9 65.25-8.59 64.63-7.9L64.63-7.9 64.63 0ZM78.78-10.9L78.78-10.9Q79.74-10.9 80.56-10.58 81.38-10.26 81.97-9.65 82.56-9.04 82.9-8.14 83.23-7.25 83.23-6.1L83.23-6.1Q83.23-5.66 83.14-5.51 83.04-5.36 82.77-5.36L82.77-5.36 75.63-5.36Q75.65-4.34 75.91-3.59 76.16-2.84 76.61-2.34 77.05-1.83 77.67-1.58 78.28-1.34 79.05-1.34L79.05-1.34Q79.76-1.34 80.27-1.5 80.78-1.66 81.15-1.85 81.52-2.05 81.77-2.21 82.02-2.37 82.2-2.37L82.2-2.37Q82.44-2.37 82.56-2.19L82.56-2.19 83.09-1.5Q82.74-1.08 82.26-0.77 81.77-0.46 81.21-0.25 80.66-0.05 80.06 0.05 79.47 0.15 78.89 0.15L78.89 0.15Q77.77 0.15 76.84-0.23 75.9-0.6 75.21-1.33 74.53-2.06 74.15-3.13 73.77-4.2 73.77-5.58L73.77-5.58Q73.77-6.71 74.11-7.68 74.46-8.66 75.1-9.37 75.75-10.09 76.68-10.5 77.61-10.9 78.78-10.9ZM78.82-9.52L78.82-9.52Q77.46-9.52 76.67-8.73 75.89-7.94 75.7-6.54L75.7-6.54 81.54-6.54Q81.54-7.19 81.36-7.74 81.17-8.29 80.83-8.68 80.48-9.08 79.97-9.3 79.47-9.52 78.82-9.52ZM96.44-15.18L102.51 0 100.93 0Q100.65 0 100.48-0.14 100.31-0.28 100.23-0.49L100.23-0.49 98.81-4.15 91.99-4.15 90.57-0.49Q90.5-0.3 90.32-0.15 90.14 0 89.87 0L89.87 0 88.28 0 94.36-15.18 96.44-15.18ZM94.95-11.8L92.57-5.64 98.23-5.64 95.85-11.81Q95.62-12.39 95.39-13.24L95.39-13.24Q95.28-12.81 95.17-12.44 95.06-12.08 94.95-11.8L94.95-11.8ZM111.96-9.5L111.46-8.83Q111.37-8.71 111.29-8.65 111.2-8.58 111.04-8.58L111.04-8.58Q110.89-8.58 110.7-8.72 110.51-8.85 110.23-9.01 109.94-9.17 109.53-9.3 109.13-9.43 108.53-9.43L108.53-9.43Q107.75-9.43 107.15-9.15 106.54-8.87 106.13-8.34 105.73-7.81 105.52-7.06 105.31-6.3 105.31-5.37L105.31-5.37Q105.31-4.4 105.53-3.64 105.76-2.88 106.16-2.37 106.56-1.85 107.14-1.58 107.72-1.31 108.44-1.31L108.44-1.31Q109.13-1.31 109.57-1.48 110.02-1.64 110.31-1.84 110.61-2.05 110.8-2.21 110.99-2.37 111.18-2.37L111.18-2.37Q111.43-2.37 111.54-2.19L111.54-2.19 112.07-1.5Q111.37-0.65 110.32-0.25 109.28 0.15 108.11 0.15L108.11 0.15Q107.1 0.15 106.24-0.22 105.38-0.59 104.74-1.3 104.1-2 103.74-3.03 103.37-4.06 103.37-5.37L103.37-5.37Q103.37-6.57 103.71-7.59 104.04-8.6 104.68-9.34 105.32-10.08 106.27-10.49 107.21-10.9 108.43-10.9L108.43-10.9Q109.55-10.9 110.42-10.54 111.29-10.17 111.96-9.5L111.96-9.5ZM121.92-6.87L121.92 0 121.08 0Q120.8 0 120.63-0.08 120.46-0.17 120.41-0.45L120.41-0.45 120.2-1.44Q119.78-1.06 119.37-0.76 118.97-0.46 118.53-0.25 118.08-0.04 117.58 0.06 117.07 0.17 116.46 0.17L116.46 0.17Q115.83 0.17 115.29-0.01 114.74-0.18 114.34-0.53 113.94-0.88 113.7-1.41 113.46-1.95 113.46-2.68L113.46-2.68Q113.46-3.32 113.81-3.9 114.16-4.49 114.94-4.95 115.72-5.4 116.98-5.7 118.24-5.99 120.06-6.03L120.06-6.03 120.06-6.87Q120.06-8.12 119.53-8.76 118.99-9.4 117.94-9.4L117.94-9.4Q117.25-9.4 116.78-9.22 116.31-9.05 115.97-8.83 115.62-8.61 115.37-8.44 115.12-8.26 114.88-8.26L114.88-8.26Q114.69-8.26 114.55-8.37 114.4-8.47 114.32-8.61L114.32-8.61 113.98-9.22Q114.87-10.08 115.9-10.5 116.93-10.92 118.18-10.92L118.18-10.92Q119.08-10.92 119.78-10.63 120.47-10.33 120.95-9.8 121.43-9.27 121.67-8.52 121.92-7.77 121.92-6.87L121.92-6.87ZM117.02-1.15L117.02-1.15Q117.52-1.15 117.93-1.26 118.35-1.36 118.71-1.54 119.08-1.73 119.41-1.99 119.74-2.26 120.06-2.6L120.06-2.6 120.06-4.83Q118.76-4.79 117.85-4.63 116.94-4.46 116.36-4.2 115.79-3.93 115.53-3.57 115.27-3.21 115.27-2.77L115.27-2.77Q115.27-2.34 115.41-2.03 115.55-1.73 115.78-1.53 116.01-1.34 116.33-1.25 116.65-1.15 117.02-1.15ZM133.45 0L132.33 0Q131.93 0 131.82-0.39L131.82-0.39 131.65-1.7Q130.96-0.86 130.08-0.35 129.2 0.15 128.05 0.15L128.05 0.15Q127.13 0.15 126.38-0.21 125.62-0.56 125.09-1.25 124.56-1.94 124.28-2.97 123.99-3.99 123.99-5.33L123.99-5.33Q123.99-6.52 124.31-7.54 124.63-8.56 125.23-9.31 125.83-10.07 126.68-10.5 127.54-10.92 128.63-10.92L128.63-10.92Q129.62-10.92 130.32-10.59 131.02-10.26 131.57-9.65L131.57-9.65 131.57-15.61 133.45-15.61 133.45 0ZM128.68-1.38L128.68-1.38Q129.6-1.38 130.29-1.8 130.99-2.23 131.57-3L131.57-3 131.57-8.19Q131.05-8.89 130.43-9.17 129.81-9.45 129.06-9.45L129.06-9.45Q127.55-9.45 126.75-8.38 125.94-7.31 125.94-5.33L125.94-5.33Q125.94-4.28 126.12-3.53 126.3-2.79 126.65-2.3 127-1.82 127.51-1.6 128.02-1.38 128.68-1.38ZM140.87-10.9L140.87-10.9Q141.84-10.9 142.65-10.58 143.47-10.26 144.06-9.65 144.65-9.04 144.99-8.14 145.32-7.25 145.32-6.1L145.32-6.1Q145.32-5.66 145.23-5.51 145.13-5.36 144.87-5.36L144.87-5.36 137.73-5.36Q137.75-4.34 138-3.59 138.25-2.84 138.7-2.34 139.14-1.83 139.76-1.58 140.37-1.34 141.14-1.34L141.14-1.34Q141.85-1.34 142.36-1.5 142.87-1.66 143.25-1.85 143.62-2.05 143.87-2.21 144.11-2.37 144.29-2.37L144.29-2.37Q144.53-2.37 144.65-2.19L144.65-2.19 145.18-1.5Q144.83-1.08 144.35-0.77 143.86-0.46 143.3-0.25 142.75-0.05 142.15 0.05 141.56 0.15 140.98 0.15L140.98 0.15Q139.87 0.15 138.93-0.23 137.99-0.6 137.31-1.33 136.62-2.06 136.24-3.13 135.86-4.2 135.86-5.58L135.86-5.58Q135.86-6.71 136.2-7.68 136.55-8.66 137.2-9.37 137.84-10.09 138.77-10.5 139.71-10.9 140.87-10.9ZM140.91-9.52L140.91-9.52Q139.55-9.52 138.76-8.73 137.98-7.94 137.79-6.54L137.79-6.54 143.63-6.54Q143.63-7.19 143.45-7.74 143.27-8.29 142.92-8.68 142.57-9.08 142.06-9.3 141.56-9.52 140.91-9.52ZM149.61 0L147.73 0 147.73-10.73 148.85-10.73Q149.25-10.73 149.36-10.34L149.36-10.34 149.5-9.24Q150.09-9.97 150.83-10.44 151.56-10.9 152.54-10.9L152.54-10.9Q153.63-10.9 154.3-10.3 154.98-9.7 155.27-8.67L155.27-8.67Q155.49-9.25 155.86-9.67 156.23-10.1 156.68-10.37 157.14-10.65 157.65-10.78 158.16-10.9 158.69-10.9L158.69-10.9Q159.54-10.9 160.2-10.63 160.87-10.36 161.33-9.84 161.79-9.32 162.03-8.57 162.28-7.81 162.28-6.83L162.28-6.83 162.28 0 160.39 0 160.39-6.83Q160.39-8.1 159.84-8.75 159.29-9.4 158.24-9.4L158.24-9.4Q157.77-9.4 157.35-9.23 156.94-9.07 156.62-8.75 156.3-8.43 156.11-7.95 155.93-7.47 155.93-6.83L155.93-6.83 155.93 0 154.04 0 154.04-6.83Q154.04-8.13 153.52-8.76 153-9.4 152.01-9.4L152.01-9.4Q151.31-9.4 150.71-9.02 150.11-8.65 149.61-8L149.61-8 149.61 0ZM173.92-10.73L167.93 3.17Q167.84 3.38 167.7 3.51 167.55 3.63 167.26 3.63L167.26 3.63 165.86 3.63 167.82-0.63 163.39-10.73 165.02-10.73Q165.26-10.73 165.4-10.61 165.54-10.49 165.6-10.34L165.6-10.34 168.47-3.58Q168.57-3.35 168.64-3.12 168.71-2.88 168.76-2.64L168.76-2.64Q168.83-2.88 168.91-3.12 168.98-3.35 169.08-3.59L169.08-3.59 171.86-10.34Q171.93-10.51 172.08-10.62 172.24-10.73 172.42-10.73L172.42-10.73 173.92-10.73ZM173.62-1.17L173.62-1.17Q173.62-1.44 173.72-1.68 173.83-1.93 174-2.11 174.17-2.29 174.42-2.39 174.66-2.5 174.94-2.5L174.94-2.5Q175.21-2.5 175.46-2.39 175.7-2.29 175.88-2.11 176.06-1.93 176.16-1.68 176.26-1.44 176.26-1.17L176.26-1.17Q176.26-0.88 176.16-0.64 176.06-0.4 175.88-0.22 175.7-0.04 175.46 0.06 175.21 0.16 174.94 0.16L174.94 0.16Q174.66 0.16 174.42 0.06 174.17-0.04 174-0.22 173.83-0.4 173.72-0.64 173.62-0.88 173.62-1.17Z" transform="translate(-0.6100000143051147, 15.609999656677246)" stroke-width="0.8" stroke-linejoin="round"/></g> </g></g> </g></g><defs v-gra="od"/>
  </svg>
</svg>


